<svg width="712" height="606" viewBox="0 0 712 606" fill="none" xmlns="http://www.w3.org/2000/svg">
<path d="M367.517 6V3.51675H370V2.48325H367.517V0H366.483V2.48325H364V3.51675H366.483V6H367.517Z" fill="#484848"/>
<path d="M481.517 6V3.51675H484V2.48325H481.517V0H480.483V2.48325H478V3.51675H480.483V6H481.517Z" fill="#484848"/>
<path d="M709.517 6V3.51675H712V2.48325H709.517V0H708.483V2.48325H706V3.51675H708.483V6H709.517Z" fill="#484848"/>
<path d="M595.517 6V3.51675H598V2.48325H595.517V0H594.483V2.48325H592V3.51675H594.483V6H595.517Z" fill="#484848"/>
<path d="M367.517 126V123.517H370V122.483H367.517V120H366.483V122.483H364V123.517H366.483V126H367.517Z" fill="#484848"/>
<path d="M481.517 126V123.517H484V122.483H481.517V120H480.483V122.483H478V123.517H480.483V126H481.517Z" fill="#484848"/>
<path d="M595.517 126V123.517H598V122.483H595.517V120H594.483V122.483H592V123.517H594.483V126H595.517Z" fill="#484848"/>
<path d="M367.517 246V243.517H370V242.483H367.517V240H366.483V242.483H364V243.517H366.483V246H367.517Z" fill="#484848"/>
<path d="M481.517 246V243.517H484V242.483H481.517V240H480.483V242.483H478V243.517H480.483V246H481.517Z" fill="#484848"/>
<path d="M709.517 246V243.517H712V242.483H709.517V240H708.483V242.483H706V243.517H708.483V246H709.517Z" fill="#484848"/>
<path d="M595.517 246V243.517H598V242.483H595.517V240H594.483V242.483H592V243.517H594.483V246H595.517Z" fill="#484848"/>
<path d="M367.517 366V363.517H370V362.483H367.517V360H366.483V362.483H364V363.517H366.483V366H367.517Z" fill="#484848"/>
<path d="M481.517 366V363.517H484V362.483H481.517V360H480.483V362.483H478V363.517H480.483V366H481.517Z" fill="#484848"/>
<path d="M709.517 366V363.517H712V362.483H709.517V360H708.483V362.483H706V363.517H708.483V366H709.517Z" fill="#484848"/>
<path d="M595.517 366V363.517H598V362.483H595.517V360H594.483V362.483H592V363.517H594.483V366H595.517Z" fill="#484848"/>
<path d="M367.517 486V483.517H370V482.483H367.517V480H366.483V482.483H364V483.517H366.483V486H367.517Z" fill="#484848"/>
<path d="M481.517 486V483.517H484V482.483H481.517V480H480.483V482.483H478V483.517H480.483V486H481.517Z" fill="#484848"/>
<path d="M709.517 486V483.517H712V482.483H709.517V480H708.483V482.483H706V483.517H708.483V486H709.517Z" fill="#484848"/>
<path d="M595.517 486V483.517H598V482.483H595.517V480H594.483V482.483H592V483.517H594.483V486H595.517Z" fill="#484848"/>
<path d="M367.517 606V603.517H370V602.483H367.517V600H366.483V602.483H364V603.517H366.483V606H367.517Z" fill="#484848"/>
<path d="M481.517 606V603.517H484V602.483H481.517V600H480.483V602.483H478V603.517H480.483V606H481.517Z" fill="#484848"/>
<path d="M709.517 606V603.517H712V602.483H709.517V600H708.483V602.483H706V603.517H708.483V606H709.517Z" fill="#484848"/>
<path d="M595.517 606V603.517H598V602.483H595.517V600H594.483V602.483H592V603.517H594.483V606H595.517Z" fill="#484848"/>
<path d="M709.517 126V123.517H712V122.483H709.517V120H708.483V122.483H706V123.517H708.483V126H709.517Z" fill="#484848"/>
<path d="M11.5167 6V3.51675H14V2.48325H11.5167V0H10.4833V2.48325H8V3.51675H10.4833V6H11.5167Z" fill="#484848"/>
<path d="M239.517 6V3.51675H242V2.48325H239.517V0H238.483V2.48325H236V3.51675H238.483V6H239.517Z" fill="#484848"/>
<path d="M125.517 6V3.51675H128V2.48325H125.517V0H124.483V2.48325H122V3.51675H124.483V6H125.517Z" fill="#484848"/>
<path d="M11.5167 126V123.517H14V122.483H11.5167V120H10.4833V122.483H8V123.517H10.4833V126H11.5167Z" fill="#484848"/>
<path d="M125.517 126V123.517H128V122.483H125.517V120H124.483V122.483H122V123.517H124.483V126H125.517Z" fill="#484848"/>
<path d="M11.5167 246V243.517H14V242.483H11.5167V240H10.4833V242.483H8V243.517H10.4833V246H11.5167Z" fill="#484848"/>
<path d="M239.517 246V243.517H242V242.483H239.517V240H238.483V242.483H236V243.517H238.483V246H239.517Z" fill="#484848"/>
<path d="M125.517 246V243.517H128V242.483H125.517V240H124.483V242.483H122V243.517H124.483V246H125.517Z" fill="#484848"/>
<path d="M11.5167 366V363.517H14V362.483H11.5167V360H10.4833V362.483H8V363.517H10.4833V366H11.5167Z" fill="#484848"/>
<path d="M239.517 366V363.517H242V362.483H239.517V360H238.483V362.483H236V363.517H238.483V366H239.517Z" fill="#484848"/>
<path d="M125.517 366V363.517H128V362.483H125.517V360H124.483V362.483H122V363.517H124.483V366H125.517Z" fill="#484848"/>
<path d="M11.5167 486V483.517H14V482.483H11.5167V480H10.4833V482.483H8V483.517H10.4833V486H11.5167Z" fill="#484848"/>
<path d="M239.517 486V483.517H242V482.483H239.517V480H238.483V482.483H236V483.517H238.483V486H239.517Z" fill="#484848"/>
<path d="M125.517 486V483.517H128V482.483H125.517V480H124.483V482.483H122V483.517H124.483V486H125.517Z" fill="#484848"/>
<path d="M11.5167 606V603.517H14V602.483H11.5167V600H10.4833V602.483H8V603.517H10.4833V606H11.5167Z" fill="#484848"/>
<path d="M239.517 606V603.517H242V602.483H239.517V600H238.483V602.483H236V603.517H238.483V606H239.517Z" fill="#484848"/>
<path d="M125.517 606V603.517H128V602.483H125.517V600H124.483V602.483H122V603.517H124.483V606H125.517Z" fill="#484848"/>
<path d="M239.517 126V123.517H242V122.483H239.517V120H238.483V122.483H236V123.517H238.483V126H239.517Z" fill="#484848"/>
<path d="M614 485C614.276 485 614.512 484.902 614.707 484.707C614.902 484.512 615 484.276 615 484C615 483.724 614.902 483.488 614.707 483.293C614.512 483.098 614.276 483 614 483C613.724 483 613.488 483.098 613.293 483.293C613.098 483.488 613 483.724 613 484C613 484.276 613.098 484.512 613.293 484.707C613.488 484.902 613.724 485 614 485Z" fill="#7C7E80"/>
<path d="M614 508C614.276 508 614.512 507.902 614.707 507.707C614.902 507.512 615 507.276 615 507C615 506.724 614.902 506.488 614.707 506.293C614.512 506.098 614.276 506 614 506C613.724 506 613.488 506.098 613.293 506.293C613.098 506.488 613 506.724 613 507C613 507.276 613.098 507.512 613.293 507.707C613.488 507.902 613.724 508 614 508Z" fill="#7C7E80"/>
<path d="M614 532C614.276 532 614.512 531.902 614.707 531.707C614.902 531.512 615 531.276 615 531C615 530.724 614.902 530.488 614.707 530.293C614.512 530.098 614.276 530 614 530C613.724 530 613.488 530.098 613.293 530.293C613.098 530.488 613 530.724 613 531C613 531.276 613.098 531.512 613.293 531.707C613.488 531.902 613.724 532 614 532Z" fill="#7C7E80"/>
<path d="M614 556C614.276 556 614.512 555.902 614.707 555.707C614.902 555.512 615 555.276 615 555C615 554.724 614.902 554.488 614.707 554.293C614.512 554.098 614.276 554 614 554C613.724 554 613.488 554.098 613.293 554.293C613.098 554.488 613 554.724 613 555C613 555.276 613.098 555.512 613.293 555.707C613.488 555.902 613.724 556 614 556Z" fill="#7C7E80"/>
<path d="M614 580C614.276 580 614.512 579.902 614.707 579.707C614.902 579.512 615 579.276 615 579C615 578.724 614.902 578.488 614.707 578.293C614.512 578.098 614.276 578 614 578C613.724 578 613.488 578.098 613.293 578.293C613.098 578.488 613 578.724 613 579C613 579.276 613.098 579.512 613.293 579.707C613.488 579.902 613.724 580 614 580Z" fill="#7C7E80"/>
<path d="M614 604C614.276 604 614.512 603.902 614.707 603.707C614.902 603.512 615 603.276 615 603C615 602.724 614.902 602.488 614.707 602.293C614.512 602.098 614.276 602 614 602C613.724 602 613.488 602.098 613.293 602.293C613.098 602.488 613 602.724 613 603C613 603.276 613.098 603.512 613.293 603.707C613.488 603.902 613.724 604 614 604Z" fill="#7C7E80"/>
<path d="M595 508C595.276 508 595.512 507.902 595.707 507.707C595.902 507.512 596 507.276 596 507C596 506.724 595.902 506.488 595.707 506.293C595.512 506.098 595.276 506 595 506C594.724 506 594.488 506.098 594.293 506.293C594.098 506.488 594 506.724 594 507C594 507.276 594.098 507.512 594.293 507.707C594.488 507.902 594.724 508 595 508Z" fill="#7C7E80"/>
<path d="M595 532C595.276 532 595.512 531.902 595.707 531.707C595.902 531.512 596 531.276 596 531C596 530.724 595.902 530.488 595.707 530.293C595.512 530.098 595.276 530 595 530C594.724 530 594.488 530.098 594.293 530.293C594.098 530.488 594 530.724 594 531C594 531.276 594.098 531.512 594.293 531.707C594.488 531.902 594.724 532 595 532Z" fill="#7C7E80"/>
<path d="M595 556C595.276 556 595.512 555.902 595.707 555.707C595.902 555.512 596 555.276 596 555C596 554.724 595.902 554.488 595.707 554.293C595.512 554.098 595.276 554 595 554C594.724 554 594.488 554.098 594.293 554.293C594.098 554.488 594 554.724 594 555C594 555.276 594.098 555.512 594.293 555.707C594.488 555.902 594.724 556 595 556Z" fill="#7C7E80"/>
<path d="M595 580C595.276 580 595.512 579.902 595.707 579.707C595.902 579.512 596 579.276 596 579C596 578.724 595.902 578.488 595.707 578.293C595.512 578.098 595.276 578 595 578C594.724 578 594.488 578.098 594.293 578.293C594.098 578.488 594 578.724 594 579C594 579.276 594.098 579.512 594.293 579.707C594.488 579.902 594.724 580 595 580Z" fill="#7C7E80"/>
<path d="M633 485C633.276 485 633.512 484.902 633.707 484.707C633.902 484.512 634 484.276 634 484C634 483.724 633.902 483.488 633.707 483.293C633.512 483.098 633.276 483 633 483C632.724 483 632.488 483.098 632.293 483.293C632.098 483.488 632 483.724 632 484C632 484.276 632.098 484.512 632.293 484.707C632.488 484.902 632.724 485 633 485Z" fill="#7C7E80"/>
<path d="M633 508C633.276 508 633.512 507.902 633.707 507.707C633.902 507.512 634 507.276 634 507C634 506.724 633.902 506.488 633.707 506.293C633.512 506.098 633.276 506 633 506C632.724 506 632.488 506.098 632.293 506.293C632.098 506.488 632 506.724 632 507C632 507.276 632.098 507.512 632.293 507.707C632.488 507.902 632.724 508 633 508Z" fill="#7C7E80"/>
<path d="M633 532C633.276 532 633.512 531.902 633.707 531.707C633.902 531.512 634 531.276 634 531C634 530.724 633.902 530.488 633.707 530.293C633.512 530.098 633.276 530 633 530C632.724 530 632.488 530.098 632.293 530.293C632.098 530.488 632 530.724 632 531C632 531.276 632.098 531.512 632.293 531.707C632.488 531.902 632.724 532 633 532Z" fill="#7C7E80"/>
<path d="M633 556C633.276 556 633.512 555.902 633.707 555.707C633.902 555.512 634 555.276 634 555C634 554.724 633.902 554.488 633.707 554.293C633.512 554.098 633.276 554 633 554C632.724 554 632.488 554.098 632.293 554.293C632.098 554.488 632 554.724 632 555C632 555.276 632.098 555.512 632.293 555.707C632.488 555.902 632.724 556 633 556Z" fill="#7C7E80"/>
<path d="M633 580C633.276 580 633.512 579.902 633.707 579.707C633.902 579.512 634 579.276 634 579C634 578.724 633.902 578.488 633.707 578.293C633.512 578.098 633.276 578 633 578C632.724 578 632.488 578.098 632.293 578.293C632.098 578.488 632 578.724 632 579C632 579.276 632.098 579.512 632.293 579.707C632.488 579.902 632.724 580 633 580Z" fill="#7C7E80"/>
<path d="M633 604C633.276 604 633.512 603.902 633.707 603.707C633.902 603.512 634 603.276 634 603C634 602.724 633.902 602.488 633.707 602.293C633.512 602.098 633.276 602 633 602C632.724 602 632.488 602.098 632.293 602.293C632.098 602.488 632 602.724 632 603C632 603.276 632.098 603.512 632.293 603.707C632.488 603.902 632.724 604 633 604Z" fill="#7C7E80"/>
<path d="M652 485C652.276 485 652.512 484.902 652.707 484.707C652.902 484.512 653 484.276 653 484C653 483.724 652.902 483.488 652.707 483.293C652.512 483.098 652.276 483 652 483C651.724 483 651.488 483.098 651.293 483.293C651.098 483.488 651 483.724 651 484C651 484.276 651.098 484.512 651.293 484.707C651.488 484.902 651.724 485 652 485Z" fill="#7C7E80"/>
<path d="M652 508C652.276 508 652.512 507.902 652.707 507.707C652.902 507.512 653 507.276 653 507C653 506.724 652.902 506.488 652.707 506.293C652.512 506.098 652.276 506 652 506C651.724 506 651.488 506.098 651.293 506.293C651.098 506.488 651 506.724 651 507C651 507.276 651.098 507.512 651.293 507.707C651.488 507.902 651.724 508 652 508Z" fill="#7C7E80"/>
<path d="M652 532C652.276 532 652.512 531.902 652.707 531.707C652.902 531.512 653 531.276 653 531C653 530.724 652.902 530.488 652.707 530.293C652.512 530.098 652.276 530 652 530C651.724 530 651.488 530.098 651.293 530.293C651.098 530.488 651 530.724 651 531C651 531.276 651.098 531.512 651.293 531.707C651.488 531.902 651.724 532 652 532Z" fill="#7C7E80"/>
<path d="M652 556C652.276 556 652.512 555.902 652.707 555.707C652.902 555.512 653 555.276 653 555C653 554.724 652.902 554.488 652.707 554.293C652.512 554.098 652.276 554 652 554C651.724 554 651.488 554.098 651.293 554.293C651.098 554.488 651 554.724 651 555C651 555.276 651.098 555.512 651.293 555.707C651.488 555.902 651.724 556 652 556Z" fill="#7C7E80"/>
<path d="M652 580C652.276 580 652.512 579.902 652.707 579.707C652.902 579.512 653 579.276 653 579C653 578.724 652.902 578.488 652.707 578.293C652.512 578.098 652.276 578 652 578C651.724 578 651.488 578.098 651.293 578.293C651.098 578.488 651 578.724 651 579C651 579.276 651.098 579.512 651.293 579.707C651.488 579.902 651.724 580 652 580Z" fill="#7C7E80"/>
<path d="M652 604C652.276 604 652.512 603.902 652.707 603.707C652.902 603.512 653 603.276 653 603C653 602.724 652.902 602.488 652.707 602.293C652.512 602.098 652.276 602 652 602C651.724 602 651.488 602.098 651.293 602.293C651.098 602.488 651 602.724 651 603C651 603.276 651.098 603.512 651.293 603.707C651.488 603.902 651.724 604 652 604Z" fill="#7C7E80"/>
<path d="M671 485C671.276 485 671.512 484.902 671.707 484.707C671.902 484.512 672 484.276 672 484C672 483.724 671.902 483.488 671.707 483.293C671.512 483.098 671.276 483 671 483C670.724 483 670.488 483.098 670.293 483.293C670.098 483.488 670 483.724 670 484C670 484.276 670.098 484.512 670.293 484.707C670.488 484.902 670.724 485 671 485Z" fill="#7C7E80"/>
<path d="M671 508C671.276 508 671.512 507.902 671.707 507.707C671.902 507.512 672 507.276 672 507C672 506.724 671.902 506.488 671.707 506.293C671.512 506.098 671.276 506 671 506C670.724 506 670.488 506.098 670.293 506.293C670.098 506.488 670 506.724 670 507C670 507.276 670.098 507.512 670.293 507.707C670.488 507.902 670.724 508 671 508Z" fill="#7C7E80"/>
<path d="M671 532C671.276 532 671.512 531.902 671.707 531.707C671.902 531.512 672 531.276 672 531C672 530.724 671.902 530.488 671.707 530.293C671.512 530.098 671.276 530 671 530C670.724 530 670.488 530.098 670.293 530.293C670.098 530.488 670 530.724 670 531C670 531.276 670.098 531.512 670.293 531.707C670.488 531.902 670.724 532 671 532Z" fill="#7C7E80"/>
<path d="M671 556C671.276 556 671.512 555.902 671.707 555.707C671.902 555.512 672 555.276 672 555C672 554.724 671.902 554.488 671.707 554.293C671.512 554.098 671.276 554 671 554C670.724 554 670.488 554.098 670.293 554.293C670.098 554.488 670 554.724 670 555C670 555.276 670.098 555.512 670.293 555.707C670.488 555.902 670.724 556 671 556Z" fill="#7C7E80"/>
<path d="M671 580C671.276 580 671.512 579.902 671.707 579.707C671.902 579.512 672 579.276 672 579C672 578.724 671.902 578.488 671.707 578.293C671.512 578.098 671.276 578 671 578C670.724 578 670.488 578.098 670.293 578.293C670.098 578.488 670 578.724 670 579C670 579.276 670.098 579.512 670.293 579.707C670.488 579.902 670.724 580 671 580Z" fill="#7C7E80"/>
<path d="M671 604C671.276 604 671.512 603.902 671.707 603.707C671.902 603.512 672 603.276 672 603C672 602.724 671.902 602.488 671.707 602.293C671.512 602.098 671.276 602 671 602C670.724 602 670.488 602.098 670.293 602.293C670.098 602.488 670 602.724 670 603C670 603.276 670.098 603.512 670.293 603.707C670.488 603.902 670.724 604 671 604Z" fill="#7C7E80"/>
<path d="M690 485C690.276 485 690.512 484.902 690.707 484.707C690.902 484.512 691 484.276 691 484C691 483.724 690.902 483.488 690.707 483.293C690.512 483.098 690.276 483 690 483C689.724 483 689.488 483.098 689.293 483.293C689.098 483.488 689 483.724 689 484C689 484.276 689.098 484.512 689.293 484.707C689.488 484.902 689.724 485 690 485Z" fill="#7C7E80"/>
<path d="M690 508C690.276 508 690.512 507.902 690.707 507.707C690.902 507.512 691 507.276 691 507C691 506.724 690.902 506.488 690.707 506.293C690.512 506.098 690.276 506 690 506C689.724 506 689.488 506.098 689.293 506.293C689.098 506.488 689 506.724 689 507C689 507.276 689.098 507.512 689.293 507.707C689.488 507.902 689.724 508 690 508Z" fill="#7C7E80"/>
<path d="M690 532C690.276 532 690.512 531.902 690.707 531.707C690.902 531.512 691 531.276 691 531C691 530.724 690.902 530.488 690.707 530.293C690.512 530.098 690.276 530 690 530C689.724 530 689.488 530.098 689.293 530.293C689.098 530.488 689 530.724 689 531C689 531.276 689.098 531.512 689.293 531.707C689.488 531.902 689.724 532 690 532Z" fill="#7C7E80"/>
<path d="M690 556C690.276 556 690.512 555.902 690.707 555.707C690.902 555.512 691 555.276 691 555C691 554.724 690.902 554.488 690.707 554.293C690.512 554.098 690.276 554 690 554C689.724 554 689.488 554.098 689.293 554.293C689.098 554.488 689 554.724 689 555C689 555.276 689.098 555.512 689.293 555.707C689.488 555.902 689.724 556 690 556Z" fill="#7C7E80"/>
<path d="M690 580C690.276 580 690.512 579.902 690.707 579.707C690.902 579.512 691 579.276 691 579C691 578.724 690.902 578.488 690.707 578.293C690.512 578.098 690.276 578 690 578C689.724 578 689.488 578.098 689.293 578.293C689.098 578.488 689 578.724 689 579C689 579.276 689.098 579.512 689.293 579.707C689.488 579.902 689.724 580 690 580Z" fill="#7C7E80"/>
<path d="M690 604C690.276 604 690.512 603.902 690.707 603.707C690.902 603.512 691 603.276 691 603C691 602.724 690.902 602.488 690.707 602.293C690.512 602.098 690.276 602 690 602C689.724 602 689.488 602.098 689.293 602.293C689.098 602.488 689 602.724 689 603C689 603.276 689.098 603.512 689.293 603.707C689.488 603.902 689.724 604 690 604Z" fill="#7C7E80"/>
<path d="M709 508C709.276 508 709.512 507.902 709.707 507.707C709.902 507.512 710 507.276 710 507C710 506.724 709.902 506.488 709.707 506.293C709.512 506.098 709.276 506 709 506C708.724 506 708.488 506.098 708.293 506.293C708.098 506.488 708 506.724 708 507C708 507.276 708.098 507.512 708.293 507.707C708.488 507.902 708.724 508 709 508Z" fill="#7C7E80"/>
<path d="M709 532C709.276 532 709.512 531.902 709.707 531.707C709.902 531.512 710 531.276 710 531C710 530.724 709.902 530.488 709.707 530.293C709.512 530.098 709.276 530 709 530C708.724 530 708.488 530.098 708.293 530.293C708.098 530.488 708 530.724 708 531C708 531.276 708.098 531.512 708.293 531.707C708.488 531.902 708.724 532 709 532Z" fill="#7C7E80"/>
<path d="M709 556C709.276 556 709.512 555.902 709.707 555.707C709.902 555.512 710 555.276 710 555C710 554.724 709.902 554.488 709.707 554.293C709.512 554.098 709.276 554 709 554C708.724 554 708.488 554.098 708.293 554.293C708.098 554.488 708 554.724 708 555C708 555.276 708.098 555.512 708.293 555.707C708.488 555.902 708.724 556 709 556Z" fill="#7C7E80"/>
<path d="M709 580C709.276 580 709.512 579.902 709.707 579.707C709.902 579.512 710 579.276 710 579C710 578.724 709.902 578.488 709.707 578.293C709.512 578.098 709.276 578 709 578C708.724 578 708.488 578.098 708.293 578.293C708.098 578.488 708 578.724 708 579C708 579.276 708.098 579.512 708.293 579.707C708.488 579.902 708.724 580 709 580Z" fill="#7C7E80"/>
</svg>
