<svg width="712" height="606" viewBox="0 0 712 606" fill="none" xmlns="http://www.w3.org/2000/svg">
<path d="M367.517 6V3.51675H370V2.48325H367.517V0H366.483V2.48325H364V3.51675H366.483V6H367.517Z" fill="#484848"/>
<path d="M481.517 6V3.51675H484V2.48325H481.517V0H480.483V2.48325H478V3.51675H480.483V6H481.517Z" fill="#484848"/>
<path d="M709.517 6V3.51675H712V2.48325H709.517V0H708.483V2.48325H706V3.51675H708.483V6H709.517Z" fill="#484848"/>
<path d="M595.517 6V3.51675H598V2.48325H595.517V0H594.483V2.48325H592V3.51675H594.483V6H595.517Z" fill="#484848"/>
<path d="M367.517 126V123.517H370V122.483H367.517V120H366.483V122.483H364V123.517H366.483V126H367.517Z" fill="#484848"/>
<path d="M481.517 126V123.517H484V122.483H481.517V120H480.483V122.483H478V123.517H480.483V126H481.517Z" fill="#484848"/>
<path d="M595.517 126V123.517H598V122.483H595.517V120H594.483V122.483H592V123.517H594.483V126H595.517Z" fill="#484848"/>
<path d="M367.517 246V243.517H370V242.483H367.517V240H366.483V242.483H364V243.517H366.483V246H367.517Z" fill="#484848"/>
<path d="M481.517 246V243.517H484V242.483H481.517V240H480.483V242.483H478V243.517H480.483V246H481.517Z" fill="#484848"/>
<path d="M709.517 246V243.517H712V242.483H709.517V240H708.483V242.483H706V243.517H708.483V246H709.517Z" fill="#484848"/>
<path d="M595.517 246V243.517H598V242.483H595.517V240H594.483V242.483H592V243.517H594.483V246H595.517Z" fill="#484848"/>
<path d="M367.517 366V363.517H370V362.483H367.517V360H366.483V362.483H364V363.517H366.483V366H367.517Z" fill="#484848"/>
<path d="M481.517 366V363.517H484V362.483H481.517V360H480.483V362.483H478V363.517H480.483V366H481.517Z" fill="#484848"/>
<path d="M709.517 366V363.517H712V362.483H709.517V360H708.483V362.483H706V363.517H708.483V366H709.517Z" fill="#484848"/>
<path d="M595.517 366V363.517H598V362.483H595.517V360H594.483V362.483H592V363.517H594.483V366H595.517Z" fill="#484848"/>
<path d="M367.517 486V483.517H370V482.483H367.517V480H366.483V482.483H364V483.517H366.483V486H367.517Z" fill="#484848"/>
<path d="M481.517 486V483.517H484V482.483H481.517V480H480.483V482.483H478V483.517H480.483V486H481.517Z" fill="#484848"/>
<path d="M709.517 486V483.517H712V482.483H709.517V480H708.483V482.483H706V483.517H708.483V486H709.517Z" fill="#484848"/>
<path d="M595.517 486V483.517H598V482.483H595.517V480H594.483V482.483H592V483.517H594.483V486H595.517Z" fill="#484848"/>
<path d="M367.517 606V603.517H370V602.483H367.517V600H366.483V602.483H364V603.517H366.483V606H367.517Z" fill="#484848"/>
<path d="M481.517 606V603.517H484V602.483H481.517V600H480.483V602.483H478V603.517H480.483V606H481.517Z" fill="#484848"/>
<path d="M709.517 606V603.517H712V602.483H709.517V600H708.483V602.483H706V603.517H708.483V606H709.517Z" fill="#484848"/>
<path d="M595.517 606V603.517H598V602.483H595.517V600H594.483V602.483H592V603.517H594.483V606H595.517Z" fill="#484848"/>
<path d="M709.517 126V123.517H712V122.483H709.517V120H708.483V122.483H706V123.517H708.483V126H709.517Z" fill="#484848"/>
<path d="M11.5167 6V3.51675H14V2.48325H11.5167V0H10.4833V2.48325H8V3.51675H10.4833V6H11.5167Z" fill="#484848"/>
<path d="M239.517 6V3.51675H242V2.48325H239.517V0H238.483V2.48325H236V3.51675H238.483V6H239.517Z" fill="#484848"/>
<path d="M125.517 6V3.51675H128V2.48325H125.517V0H124.483V2.48325H122V3.51675H124.483V6H125.517Z" fill="#484848"/>
<path d="M11.5167 126V123.517H14V122.483H11.5167V120H10.4833V122.483H8V123.517H10.4833V126H11.5167Z" fill="#484848"/>
<path d="M125.517 126V123.517H128V122.483H125.517V120H124.483V122.483H122V123.517H124.483V126H125.517Z" fill="#484848"/>
<path d="M11.5167 246V243.517H14V242.483H11.5167V240H10.4833V242.483H8V243.517H10.4833V246H11.5167Z" fill="#484848"/>
<path d="M239.517 246V243.517H242V242.483H239.517V240H238.483V242.483H236V243.517H238.483V246H239.517Z" fill="#484848"/>
<path d="M125.517 246V243.517H128V242.483H125.517V240H124.483V242.483H122V243.517H124.483V246H125.517Z" fill="#484848"/>
<path d="M11.5167 366V363.517H14V362.483H11.5167V360H10.4833V362.483H8V363.517H10.4833V366H11.5167Z" fill="#484848"/>
<path d="M239.517 366V363.517H242V362.483H239.517V360H238.483V362.483H236V363.517H238.483V366H239.517Z" fill="#484848"/>
<path d="M125.517 366V363.517H128V362.483H125.517V360H124.483V362.483H122V363.517H124.483V366H125.517Z" fill="#484848"/>
<path d="M11.5167 486V483.517H14V482.483H11.5167V480H10.4833V482.483H8V483.517H10.4833V486H11.5167Z" fill="#484848"/>
<path d="M239.517 486V483.517H242V482.483H239.517V480H238.483V482.483H236V483.517H238.483V486H239.517Z" fill="#484848"/>
<path d="M125.517 486V483.517H128V482.483H125.517V480H124.483V482.483H122V483.517H124.483V486H125.517Z" fill="#484848"/>
<path d="M11.5167 606V603.517H14V602.483H11.5167V600H10.4833V602.483H8V603.517H10.4833V606H11.5167Z" fill="#484848"/>
<path d="M239.517 606V603.517H242V602.483H239.517V600H238.483V602.483H236V603.517H238.483V606H239.517Z" fill="#484848"/>
<path d="M125.517 606V603.517H128V602.483H125.517V600H124.483V602.483H122V603.517H124.483V606H125.517Z" fill="#484848"/>
<path d="M239.517 126V123.517H242V122.483H239.517V120H238.483V122.483H236V123.517H238.483V126H239.517Z" fill="#484848"/>
</svg>
