<svg width="348" height="606" viewBox="0 0 348 606" fill="none" xmlns="http://www.w3.org/2000/svg">
<path d="M3.51675 6V3.51675H6V2.48325H3.51675V0H2.48325V2.48325H0V3.51675H2.48325V6H3.51675Z" fill="#2E3337"/>
<path d="M117.517 6V3.51675H120V2.48325H117.517V0H116.483V2.48325H114V3.51675H116.483V6H117.517Z" fill="#2E3337"/>
<path d="M345.517 6V3.51675H348V2.48325H345.517V0H344.483V2.48325H342V3.51675H344.483V6H345.517Z" fill="#2E3337"/>
<path d="M231.517 6V3.51675H234V2.48325H231.517V0H230.483V2.48325H228V3.51675H230.483V6H231.517Z" fill="#2E3337"/>
<path d="M3.51675 126V123.517H6V122.483H3.51675V120H2.48325V122.483H0V123.517H2.48325V126H3.51675Z" fill="#2E3337"/>
<path d="M117.517 126V123.517H120V122.483H117.517V120H116.483V122.483H114V123.517H116.483V126H117.517Z" fill="#2E3337"/>
<path d="M231.517 126V123.517H234V122.483H231.517V120H230.483V122.483H228V123.517H230.483V126H231.517Z" fill="#2E3337"/>
<path d="M3.51675 246V243.517H6V242.483H3.51675V240H2.48325V242.483H0V243.517H2.48325V246H3.51675Z" fill="#2E3337"/>
<path d="M117.517 246V243.517H120V242.483H117.517V240H116.483V242.483H114V243.517H116.483V246H117.517Z" fill="#2E3337"/>
<path d="M345.517 246V243.517H348V242.483H345.517V240H344.483V242.483H342V243.517H344.483V246H345.517Z" fill="#2E3337"/>
<path d="M231.517 246V243.517H234V242.483H231.517V240H230.483V242.483H228V243.517H230.483V246H231.517Z" fill="#2E3337"/>
<path d="M3.51675 366V363.517H6V362.483H3.51675V360H2.48325V362.483H0V363.517H2.48325V366H3.51675Z" fill="#2E3337"/>
<path d="M117.517 366V363.517H120V362.483H117.517V360H116.483V362.483H114V363.517H116.483V366H117.517Z" fill="#2E3337"/>
<path d="M345.517 366V363.517H348V362.483H345.517V360H344.483V362.483H342V363.517H344.483V366H345.517Z" fill="#2E3337"/>
<path d="M231.517 366V363.517H234V362.483H231.517V360H230.483V362.483H228V363.517H230.483V366H231.517Z" fill="#2E3337"/>
<path d="M3.51675 486V483.517H6V482.483H3.51675V480H2.48325V482.483H0V483.517H2.48325V486H3.51675Z" fill="#2E3337"/>
<path d="M117.517 486V483.517H120V482.483H117.517V480H116.483V482.483H114V483.517H116.483V486H117.517Z" fill="#2E3337"/>
<path d="M345.517 486V483.517H348V482.483H345.517V480H344.483V482.483H342V483.517H344.483V486H345.517Z" fill="#2E3337"/>
<path d="M231.517 486V483.517H234V482.483H231.517V480H230.483V482.483H228V483.517H230.483V486H231.517Z" fill="#2E3337"/>
<path d="M3.51675 606V603.517H6V602.483H3.51675V600H2.48325V602.483H0V603.517H2.48325V606H3.51675Z" fill="#2E3337"/>
<path d="M117.517 606V603.517H120V602.483H117.517V600H116.483V602.483H114V603.517H116.483V606H117.517Z" fill="#2E3337"/>
<path d="M345.517 606V603.517H348V602.483H345.517V600H344.483V602.483H342V603.517H344.483V606H345.517Z" fill="#2E3337"/>
<path d="M231.517 606V603.517H234V602.483H231.517V600H230.483V602.483H228V603.517H230.483V606H231.517Z" fill="#2E3337"/>
<path d="M345.517 126V123.517H348V122.483H345.517V120H344.483V122.483H342V123.517H344.483V126H345.517Z" fill="#2E3337"/>
<path d="M250 485C250.276 485 250.512 484.902 250.707 484.707C250.902 484.512 251 484.276 251 484C251 483.724 250.902 483.488 250.707 483.293C250.512 483.098 250.276 483 250 483C249.724 483 249.488 483.098 249.293 483.293C249.098 483.488 249 483.724 249 484C249 484.276 249.098 484.512 249.293 484.707C249.488 484.902 249.724 485 250 485Z" fill="#2E3337"/>
<path d="M250 508C250.276 508 250.512 507.902 250.707 507.707C250.902 507.512 251 507.276 251 507C251 506.724 250.902 506.488 250.707 506.293C250.512 506.098 250.276 506 250 506C249.724 506 249.488 506.098 249.293 506.293C249.098 506.488 249 506.724 249 507C249 507.276 249.098 507.512 249.293 507.707C249.488 507.902 249.724 508 250 508Z" fill="#2E3337"/>
<path d="M250 532C250.276 532 250.512 531.902 250.707 531.707C250.902 531.512 251 531.276 251 531C251 530.724 250.902 530.488 250.707 530.293C250.512 530.098 250.276 530 250 530C249.724 530 249.488 530.098 249.293 530.293C249.098 530.488 249 530.724 249 531C249 531.276 249.098 531.512 249.293 531.707C249.488 531.902 249.724 532 250 532Z" fill="#2E3337"/>
<path d="M250 556C250.276 556 250.512 555.902 250.707 555.707C250.902 555.512 251 555.276 251 555C251 554.724 250.902 554.488 250.707 554.293C250.512 554.098 250.276 554 250 554C249.724 554 249.488 554.098 249.293 554.293C249.098 554.488 249 554.724 249 555C249 555.276 249.098 555.512 249.293 555.707C249.488 555.902 249.724 556 250 556Z" fill="#2E3337"/>
<path d="M250 580C250.276 580 250.512 579.902 250.707 579.707C250.902 579.512 251 579.276 251 579C251 578.724 250.902 578.488 250.707 578.293C250.512 578.098 250.276 578 250 578C249.724 578 249.488 578.098 249.293 578.293C249.098 578.488 249 578.724 249 579C249 579.276 249.098 579.512 249.293 579.707C249.488 579.902 249.724 580 250 580Z" fill="#2E3337"/>
<path d="M250 604C250.276 604 250.512 603.902 250.707 603.707C250.902 603.512 251 603.276 251 603C251 602.724 250.902 602.488 250.707 602.293C250.512 602.098 250.276 602 250 602C249.724 602 249.488 602.098 249.293 602.293C249.098 602.488 249 602.724 249 603C249 603.276 249.098 603.512 249.293 603.707C249.488 603.902 249.724 604 250 604Z" fill="#2E3337"/>
<path d="M231 508C231.276 508 231.512 507.902 231.707 507.707C231.902 507.512 232 507.276 232 507C232 506.724 231.902 506.488 231.707 506.293C231.512 506.098 231.276 506 231 506C230.724 506 230.488 506.098 230.293 506.293C230.098 506.488 230 506.724 230 507C230 507.276 230.098 507.512 230.293 507.707C230.488 507.902 230.724 508 231 508Z" fill="#2E3337"/>
<path d="M231 532C231.276 532 231.512 531.902 231.707 531.707C231.902 531.512 232 531.276 232 531C232 530.724 231.902 530.488 231.707 530.293C231.512 530.098 231.276 530 231 530C230.724 530 230.488 530.098 230.293 530.293C230.098 530.488 230 530.724 230 531C230 531.276 230.098 531.512 230.293 531.707C230.488 531.902 230.724 532 231 532Z" fill="#2E3337"/>
<path d="M231 556C231.276 556 231.512 555.902 231.707 555.707C231.902 555.512 232 555.276 232 555C232 554.724 231.902 554.488 231.707 554.293C231.512 554.098 231.276 554 231 554C230.724 554 230.488 554.098 230.293 554.293C230.098 554.488 230 554.724 230 555C230 555.276 230.098 555.512 230.293 555.707C230.488 555.902 230.724 556 231 556Z" fill="#2E3337"/>
<path d="M231 580C231.276 580 231.512 579.902 231.707 579.707C231.902 579.512 232 579.276 232 579C232 578.724 231.902 578.488 231.707 578.293C231.512 578.098 231.276 578 231 578C230.724 578 230.488 578.098 230.293 578.293C230.098 578.488 230 578.724 230 579C230 579.276 230.098 579.512 230.293 579.707C230.488 579.902 230.724 580 231 580Z" fill="#2E3337"/>
<path d="M269 485C269.276 485 269.512 484.902 269.707 484.707C269.902 484.512 270 484.276 270 484C270 483.724 269.902 483.488 269.707 483.293C269.512 483.098 269.276 483 269 483C268.724 483 268.488 483.098 268.293 483.293C268.098 483.488 268 483.724 268 484C268 484.276 268.098 484.512 268.293 484.707C268.488 484.902 268.724 485 269 485Z" fill="#2E3337"/>
<path d="M269 508C269.276 508 269.512 507.902 269.707 507.707C269.902 507.512 270 507.276 270 507C270 506.724 269.902 506.488 269.707 506.293C269.512 506.098 269.276 506 269 506C268.724 506 268.488 506.098 268.293 506.293C268.098 506.488 268 506.724 268 507C268 507.276 268.098 507.512 268.293 507.707C268.488 507.902 268.724 508 269 508Z" fill="#2E3337"/>
<path d="M269 532C269.276 532 269.512 531.902 269.707 531.707C269.902 531.512 270 531.276 270 531C270 530.724 269.902 530.488 269.707 530.293C269.512 530.098 269.276 530 269 530C268.724 530 268.488 530.098 268.293 530.293C268.098 530.488 268 530.724 268 531C268 531.276 268.098 531.512 268.293 531.707C268.488 531.902 268.724 532 269 532Z" fill="#2E3337"/>
<path d="M269 556C269.276 556 269.512 555.902 269.707 555.707C269.902 555.512 270 555.276 270 555C270 554.724 269.902 554.488 269.707 554.293C269.512 554.098 269.276 554 269 554C268.724 554 268.488 554.098 268.293 554.293C268.098 554.488 268 554.724 268 555C268 555.276 268.098 555.512 268.293 555.707C268.488 555.902 268.724 556 269 556Z" fill="#2E3337"/>
<path d="M269 580C269.276 580 269.512 579.902 269.707 579.707C269.902 579.512 270 579.276 270 579C270 578.724 269.902 578.488 269.707 578.293C269.512 578.098 269.276 578 269 578C268.724 578 268.488 578.098 268.293 578.293C268.098 578.488 268 578.724 268 579C268 579.276 268.098 579.512 268.293 579.707C268.488 579.902 268.724 580 269 580Z" fill="#2E3337"/>
<path d="M269 604C269.276 604 269.512 603.902 269.707 603.707C269.902 603.512 270 603.276 270 603C270 602.724 269.902 602.488 269.707 602.293C269.512 602.098 269.276 602 269 602C268.724 602 268.488 602.098 268.293 602.293C268.098 602.488 268 602.724 268 603C268 603.276 268.098 603.512 268.293 603.707C268.488 603.902 268.724 604 269 604Z" fill="#2E3337"/>
<path d="M288 485C288.276 485 288.512 484.902 288.707 484.707C288.902 484.512 289 484.276 289 484C289 483.724 288.902 483.488 288.707 483.293C288.512 483.098 288.276 483 288 483C287.724 483 287.488 483.098 287.293 483.293C287.098 483.488 287 483.724 287 484C287 484.276 287.098 484.512 287.293 484.707C287.488 484.902 287.724 485 288 485Z" fill="#2E3337"/>
<path d="M288 508C288.276 508 288.512 507.902 288.707 507.707C288.902 507.512 289 507.276 289 507C289 506.724 288.902 506.488 288.707 506.293C288.512 506.098 288.276 506 288 506C287.724 506 287.488 506.098 287.293 506.293C287.098 506.488 287 506.724 287 507C287 507.276 287.098 507.512 287.293 507.707C287.488 507.902 287.724 508 288 508Z" fill="#2E3337"/>
<path d="M288 532C288.276 532 288.512 531.902 288.707 531.707C288.902 531.512 289 531.276 289 531C289 530.724 288.902 530.488 288.707 530.293C288.512 530.098 288.276 530 288 530C287.724 530 287.488 530.098 287.293 530.293C287.098 530.488 287 530.724 287 531C287 531.276 287.098 531.512 287.293 531.707C287.488 531.902 287.724 532 288 532Z" fill="#2E3337"/>
<path d="M288 556C288.276 556 288.512 555.902 288.707 555.707C288.902 555.512 289 555.276 289 555C289 554.724 288.902 554.488 288.707 554.293C288.512 554.098 288.276 554 288 554C287.724 554 287.488 554.098 287.293 554.293C287.098 554.488 287 554.724 287 555C287 555.276 287.098 555.512 287.293 555.707C287.488 555.902 287.724 556 288 556Z" fill="#2E3337"/>
<path d="M288 580C288.276 580 288.512 579.902 288.707 579.707C288.902 579.512 289 579.276 289 579C289 578.724 288.902 578.488 288.707 578.293C288.512 578.098 288.276 578 288 578C287.724 578 287.488 578.098 287.293 578.293C287.098 578.488 287 578.724 287 579C287 579.276 287.098 579.512 287.293 579.707C287.488 579.902 287.724 580 288 580Z" fill="#2E3337"/>
<path d="M288 604C288.276 604 288.512 603.902 288.707 603.707C288.902 603.512 289 603.276 289 603C289 602.724 288.902 602.488 288.707 602.293C288.512 602.098 288.276 602 288 602C287.724 602 287.488 602.098 287.293 602.293C287.098 602.488 287 602.724 287 603C287 603.276 287.098 603.512 287.293 603.707C287.488 603.902 287.724 604 288 604Z" fill="#2E3337"/>
<path d="M307 485C307.276 485 307.512 484.902 307.707 484.707C307.902 484.512 308 484.276 308 484C308 483.724 307.902 483.488 307.707 483.293C307.512 483.098 307.276 483 307 483C306.724 483 306.488 483.098 306.293 483.293C306.098 483.488 306 483.724 306 484C306 484.276 306.098 484.512 306.293 484.707C306.488 484.902 306.724 485 307 485Z" fill="#2E3337"/>
<path d="M307 508C307.276 508 307.512 507.902 307.707 507.707C307.902 507.512 308 507.276 308 507C308 506.724 307.902 506.488 307.707 506.293C307.512 506.098 307.276 506 307 506C306.724 506 306.488 506.098 306.293 506.293C306.098 506.488 306 506.724 306 507C306 507.276 306.098 507.512 306.293 507.707C306.488 507.902 306.724 508 307 508Z" fill="#2E3337"/>
<path d="M307 532C307.276 532 307.512 531.902 307.707 531.707C307.902 531.512 308 531.276 308 531C308 530.724 307.902 530.488 307.707 530.293C307.512 530.098 307.276 530 307 530C306.724 530 306.488 530.098 306.293 530.293C306.098 530.488 306 530.724 306 531C306 531.276 306.098 531.512 306.293 531.707C306.488 531.902 306.724 532 307 532Z" fill="#2E3337"/>
<path d="M307 556C307.276 556 307.512 555.902 307.707 555.707C307.902 555.512 308 555.276 308 555C308 554.724 307.902 554.488 307.707 554.293C307.512 554.098 307.276 554 307 554C306.724 554 306.488 554.098 306.293 554.293C306.098 554.488 306 554.724 306 555C306 555.276 306.098 555.512 306.293 555.707C306.488 555.902 306.724 556 307 556Z" fill="#2E3337"/>
<path d="M307 580C307.276 580 307.512 579.902 307.707 579.707C307.902 579.512 308 579.276 308 579C308 578.724 307.902 578.488 307.707 578.293C307.512 578.098 307.276 578 307 578C306.724 578 306.488 578.098 306.293 578.293C306.098 578.488 306 578.724 306 579C306 579.276 306.098 579.512 306.293 579.707C306.488 579.902 306.724 580 307 580Z" fill="#2E3337"/>
<path d="M307 604C307.276 604 307.512 603.902 307.707 603.707C307.902 603.512 308 603.276 308 603C308 602.724 307.902 602.488 307.707 602.293C307.512 602.098 307.276 602 307 602C306.724 602 306.488 602.098 306.293 602.293C306.098 602.488 306 602.724 306 603C306 603.276 306.098 603.512 306.293 603.707C306.488 603.902 306.724 604 307 604Z" fill="#2E3337"/>
<path d="M326 485C326.276 485 326.512 484.902 326.707 484.707C326.902 484.512 327 484.276 327 484C327 483.724 326.902 483.488 326.707 483.293C326.512 483.098 326.276 483 326 483C325.724 483 325.488 483.098 325.293 483.293C325.098 483.488 325 483.724 325 484C325 484.276 325.098 484.512 325.293 484.707C325.488 484.902 325.724 485 326 485Z" fill="#2E3337"/>
<path d="M326 508C326.276 508 326.512 507.902 326.707 507.707C326.902 507.512 327 507.276 327 507C327 506.724 326.902 506.488 326.707 506.293C326.512 506.098 326.276 506 326 506C325.724 506 325.488 506.098 325.293 506.293C325.098 506.488 325 506.724 325 507C325 507.276 325.098 507.512 325.293 507.707C325.488 507.902 325.724 508 326 508Z" fill="#2E3337"/>
<path d="M326 532C326.276 532 326.512 531.902 326.707 531.707C326.902 531.512 327 531.276 327 531C327 530.724 326.902 530.488 326.707 530.293C326.512 530.098 326.276 530 326 530C325.724 530 325.488 530.098 325.293 530.293C325.098 530.488 325 530.724 325 531C325 531.276 325.098 531.512 325.293 531.707C325.488 531.902 325.724 532 326 532Z" fill="#2E3337"/>
<path d="M326 556C326.276 556 326.512 555.902 326.707 555.707C326.902 555.512 327 555.276 327 555C327 554.724 326.902 554.488 326.707 554.293C326.512 554.098 326.276 554 326 554C325.724 554 325.488 554.098 325.293 554.293C325.098 554.488 325 554.724 325 555C325 555.276 325.098 555.512 325.293 555.707C325.488 555.902 325.724 556 326 556Z" fill="#2E3337"/>
<path d="M326 580C326.276 580 326.512 579.902 326.707 579.707C326.902 579.512 327 579.276 327 579C327 578.724 326.902 578.488 326.707 578.293C326.512 578.098 326.276 578 326 578C325.724 578 325.488 578.098 325.293 578.293C325.098 578.488 325 578.724 325 579C325 579.276 325.098 579.512 325.293 579.707C325.488 579.902 325.724 580 326 580Z" fill="#2E3337"/>
<path d="M326 604C326.276 604 326.512 603.902 326.707 603.707C326.902 603.512 327 603.276 327 603C327 602.724 326.902 602.488 326.707 602.293C326.512 602.098 326.276 602 326 602C325.724 602 325.488 602.098 325.293 602.293C325.098 602.488 325 602.724 325 603C325 603.276 325.098 603.512 325.293 603.707C325.488 603.902 325.724 604 326 604Z" fill="#2E3337"/>
<path d="M345 508C345.276 508 345.512 507.902 345.707 507.707C345.902 507.512 346 507.276 346 507C346 506.724 345.902 506.488 345.707 506.293C345.512 506.098 345.276 506 345 506C344.724 506 344.488 506.098 344.293 506.293C344.098 506.488 344 506.724 344 507C344 507.276 344.098 507.512 344.293 507.707C344.488 507.902 344.724 508 345 508Z" fill="#2E3337"/>
<path d="M345 532C345.276 532 345.512 531.902 345.707 531.707C345.902 531.512 346 531.276 346 531C346 530.724 345.902 530.488 345.707 530.293C345.512 530.098 345.276 530 345 530C344.724 530 344.488 530.098 344.293 530.293C344.098 530.488 344 530.724 344 531C344 531.276 344.098 531.512 344.293 531.707C344.488 531.902 344.724 532 345 532Z" fill="#2E3337"/>
<path d="M345 556C345.276 556 345.512 555.902 345.707 555.707C345.902 555.512 346 555.276 346 555C346 554.724 345.902 554.488 345.707 554.293C345.512 554.098 345.276 554 345 554C344.724 554 344.488 554.098 344.293 554.293C344.098 554.488 344 554.724 344 555C344 555.276 344.098 555.512 344.293 555.707C344.488 555.902 344.724 556 345 556Z" fill="#2E3337"/>
<path d="M345 580C345.276 580 345.512 579.902 345.707 579.707C345.902 579.512 346 579.276 346 579C346 578.724 345.902 578.488 345.707 578.293C345.512 578.098 345.276 578 345 578C344.724 578 344.488 578.098 344.293 578.293C344.098 578.488 344 578.724 344 579C344 579.276 344.098 579.512 344.293 579.707C344.488 579.902 344.724 580 345 580Z" fill="#2E3337"/>
</svg>
