<?xml version="1.0" encoding="UTF-8"?>
<svg width="139px" height="30px" viewBox="0 0 139 30" version="1.1" xmlns="http://www.w3.org/2000/svg" xmlns:xlink="http://www.w3.org/1999/xlink">
    <title>Group 12</title>
    <g id="Page-2" stroke="none" stroke-width="1" fill="none" fill-rule="evenodd">
        <g id="Producto" transform="translate(-94.000000, -7321.000000)" fill="#FFFFFF">
            <g id="Group-4" transform="translate(-9.000000, 7299.000000)">
                <g id="Group-12" transform="translate(103.000000, 22.000000)">
                    <g id="Group-10" transform="translate(77.000000, 0.000000)">
                        <path d="M42.2479663,0.183418497 C42.6679329,0.453567206 42.9705014,0.770453657 43.1556717,1.13407785 C43.3348838,1.4860016 44.1908806,3.42666497 45.723662,6.95606796 C47.3041625,6.30514646 48.9669711,5.93939394 50.6160409,5.93939394 C53.3885413,5.93939394 54.9823451,6.95500661 56.6231251,8.06453322 C58.4907415,9.32745092 59.8820384,10.9919459 60.6012439,12.8532197 C60.8002521,12.9255238 60.9856869,13.0267093 61.1521184,13.151813 L61.1515152,11.3882576 C61.1515152,11.1905647 61.341455,11.030303 61.5757576,11.030303 C61.8100602,11.030303 62,11.1905647 62,11.3882576 L62,18.3087121 C62,18.506405 61.8100602,18.6666667 61.5757576,18.6666667 C61.341455,18.6666667 61.1515152,18.506405 61.1515152,18.3087121 L61.1521184,18.2421263 C61.0079561,18.3504908 60.8495357,18.4409094 60.6801746,18.5100648 C60.1390277,20.272701 59.4341692,21.8693198 58.064623,22.9340474 C56.5238046,24.1319272 55.0355189,24.9258482 53.2336257,25.4473567 C52.9654462,26.7081285 52.6540343,27.7081219 52.2984119,28.447506 C51.8091508,29.464742 51.30487,29.86085 50.7855696,29.6358302 C50.6105835,29.5457806 50.4845133,29.4401518 50.407359,29.3189437 C50.3406999,29.2142235 50.0493189,28.6874787 49.5332158,27.7387093 C49.2713233,27.8196397 49.0046627,27.883025 48.7348197,27.9270734 C48.2982647,28.6996371 47.8508193,28.9863182 47.3916302,28.7873453 C47.2166441,28.6972958 47.0905739,28.591667 47.0134196,28.4704589 C46.9776893,28.4143272 46.8773936,28.2369426 46.7125324,27.938305 C46.5427985,27.9178557 46.3803728,27.8925361 46.2242216,27.861564 C45.7771293,28.6836912 45.317848,28.9917273 44.8461756,28.7873453 C44.6711896,28.6972958 44.5451194,28.591667 44.4679651,28.4704589 C44.3908107,28.3492508 44.0126002,27.6626635 43.3333333,26.410697 C43.498912,26.3603191 43.6456024,26.3144408 43.7734047,26.2730622 C43.3568555,26.2258987 43.0117071,26.1223831 42.6999197,25.9878176 C39.2395995,25.341513 36.721814,23.6850057 36.6686063,20.8153689 C36.659985,20.3503962 36.5790724,19.4765278 36.5532997,18.6213664 C36.4141394,18.6514605 36.2694516,18.6666667 36.1212121,18.6666667 C35.9189055,18.6666667 35.7232137,18.6383455 35.5378851,18.5854515 C35.466264,18.6369577 35.3736076,18.6666667 35.2727273,18.6666667 C35.0384247,18.6666667 34.8484848,18.506405 34.8484848,18.3087121 L34.8478816,18.2421263 C34.3330049,17.855102 34,17.239167 34,16.5454545 L34,14.8484848 C34,14.1547724 34.3330049,13.5388374 34.8478816,13.151813 L34.8484848,11.3882576 C34.8484848,11.1905647 35.0384247,11.030303 35.2727273,11.030303 C35.5070299,11.030303 35.6969697,11.1905647 35.6969697,11.3882576 L35.6964285,12.7698146 C35.8336732,12.741918 35.9757324,12.7272727 36.1212121,12.7272727 C36.2076997,12.7272727 36.2929783,12.7324488 36.3767551,12.742508 C37.0170495,8.9633647 37.7641005,5.96537552 38.6171448,3.74839108 C39.7913714,0.696683142 41.0016452,-0.491641051 42.2479663,0.183418497 Z M53.5110054,12.7272727 C52.2119171,12.7272727 49.3177926,15.3181667 48.5562541,17.1745037 C47.7947156,19.0308407 50.4868445,19.5151515 52.5602249,19.5151515 C54.6336052,19.5151515 56.4696242,18.1107628 55.9809493,16.2382445 C55.4922743,14.3657262 54.8100936,12.7272727 53.5110054,12.7272727 Z M42.4889946,12.7272727 C41.1899064,12.7272727 40.5077257,14.3657262 40.0190507,16.2382445 C39.5303758,18.1107628 41.3663948,19.5151515 43.4397751,19.5151515 C45.5131555,19.5151515 48.2052844,19.0308407 47.4437459,17.1745037 C46.6822074,15.3181667 43.7880829,12.7272727 42.4889946,12.7272727 Z M41.712424,9.36391794 L41.6424285,9.41243405 C41.4156438,9.57406581 41.2064207,9.74153802 40.9998714,9.92767688 C40.4079551,10.4611022 39.4234155,11.4866191 38.3902184,12.7796549 C38.24753,12.958228 38.0662149,13.2357159 37.8462729,13.6121186 C37.8811393,13.6624351 37.9141555,13.7128421 37.9450248,13.7646765 C38.8937813,12.1060349 40.1956329,10.600914 41.712424,9.36391794 Z" id="Combined-Shape-Copy"></path>
                        <g id="Group-11" transform="translate(0.000000, 11.000000)">
                            <rect id="Rectangle" x="6" y="0" width="2" height="13"></rect>
                            <rect id="Rectangle" transform="translate(7.000000, 6.500000) rotate(90.000000) translate(-7.000000, -6.500000) " x="6" y="0" width="2" height="13"></rect>
                        </g>
                    </g>
                    <path d="M61.2899686,8.26191762 C61.6482979,7.99743459 62.0392025,7.73295156 62.332381,7.39793972 C62.5604087,7.13345669 62.7232857,6.79844486 62.6744226,6.48106522 C62.5604087,5.81104155 61.746024,5.65235173 61.0130778,5.81104155 C60.5570224,5.91683476 60.1009669,6.12842118 59.7589253,6.44580082 C59.6123361,6.56922623 59.4820345,6.72791605 59.4168838,6.88660587 C59.351733,7.09819229 59.5146099,7.2392499 59.775213,7.1687211 C59.9706654,7.11582449 60.1335423,6.99239908 60.2801316,6.86897366 C60.4592962,6.69265165 60.6221731,6.49869742 60.8990639,6.44580082 C61.0782286,6.41053642 61.2411055,6.46343302 61.2411055,6.63975504 C61.2411055,6.78081266 61.110804,6.92187027 60.9805024,7.02766348 C60.8664886,7.11582449 60.7687624,7.2039855 60.6547485,7.27451431 C60.2638439,7.57426174 59.8892269,7.87400917 59.5960484,8.24428541 C59.4657469,8.42060743 59.351733,8.61456165 59.2865822,8.80851588 C59.2051437,9.0377345 59.1725684,9.26695312 59.2214314,9.47853955 C59.2865822,9.77828698 59.5471853,9.9898734 59.9055146,10.0075056 C60.5733101,10.0251378 61.2573932,9.9722412 61.9577641,9.86644799 C62.3160933,9.79591918 62.6907103,9.58433276 62.7232857,9.23168872 C62.7558611,8.86141248 62.3649564,8.73798707 61.9903395,8.79088367 C61.4854209,8.86141248 60.9805024,8.91430909 60.4755839,8.96720569 C60.6710362,8.70272266 60.9967901,8.49113624 61.2899686,8.26191762 L61.2899686,8.26191762 L61.2899686,8.26191762 Z M52.4069643,15.2689821 C51.2694055,15.2689821 45.6505541,20.7775047 51.4589986,20.7775047 C56.2160629,20.7775047 53.4583445,15.2689821 52.4069643,15.2689821 L52.4069643,15.2689821 L52.4069643,15.2689821 Z M13.5502129,15.0185947 C12.2602549,15.0185947 5.42171001,20.5271173 12.4369615,20.5271173 C18.0032189,20.5271173 14.840171,15.0185947 13.5502129,15.0185947 L13.5502129,15.0185947 L13.5502129,15.0185947 Z M25.548029,10.1489795 C26.3883447,11.2348163 26.8785288,12.4082207 27.4737524,13.6341655 C27.7538577,13.4590305 28.1214958,10.376655 28.2090287,9.88627703 C28.4716273,8.36260276 29.4169825,4.26444436 31.4302388,4.26444436 C32.49814,4.26444436 33.2159096,5.33276771 33.5660412,6.22595607 C34.0562253,7.45190089 34.3538371,8.66033221 34.5814226,9.95633102 C34.7039686,10.6568709 34.9315541,12.1980587 35.1066199,12.8285446 C36.6121855,12.1280047 39.5007707,10.5342764 39.5532904,10.5167629 C40.5161521,9.99135802 42.546915,10.6568709 41.514027,12.4782746 C40.7087245,13.9143814 37.1899026,17.1894055 37.1899026,17.5571889 C37.1899026,17.7848644 40.2535535,19.5187006 40.6912179,19.6062681 C40.7612442,19.4836736 40.8662837,19.3610791 40.9012968,19.2384846 C41.2864415,18.2577288 41.4440007,17.3295134 41.9516914,16.3837846 C43.7373623,12.9686526 48.131513,8.85298069 52.2455586,8.97557517 C53.5060321,9.01060216 54.7139859,9.34335861 55.7818871,9.90379053 C55.5718082,9.18573714 55.5718082,8.41514325 55.8869266,7.60952237 C56.9898409,4.75482229 61.121393,3.38876949 63.7298729,4.49211983 C65.5855701,5.28022721 66.4959121,7.03157696 65.7256227,9.04562916 C64.7802676,11.5150323 61.8916824,13.581625 59.3182156,13.0562201 C61.0338601,15.5431367 61.7166166,18.7831337 60.6837286,21.6203203 C59.2306827,25.6834517 53.6810979,26.786802 49.8646641,26.786802 C48.7442432,26.786802 44.82277,26.0512351 44.7177306,26.0687486 C42.6169414,26.2613971 41.4440007,26.4540456 39.3081983,25.8936137 L35.474258,24.4049664 C35.0716068,24.2998854 34.5814226,25.1405333 34.318824,25.3682087 C32.5506597,26.9794505 29.7846206,26.2088566 27.9989497,25.1230198 C25.9681868,26.4190186 22.4318583,26.92691 20.4010954,25.3156682 C20.0509639,25.0354523 19.2456614,23.8445345 19.1231153,23.791994 C14.834004,26.5065861 8.40909032,27.3297205 3.4547291,26.0687486 C2.68443972,26.0512351 0.98630177,24.8603173 0.671183388,24.1597774 C-0.186638874,22.2508062 -0.0815994137,20.411889 0.216012392,18.3277828 C0.54863735,16.0510281 0.98630177,13.7742735 1.37144646,11.5150323 C1.66905826,9.79870955 2.80698575,4.17687688 4.97780128,4.17687688 C7.70882725,4.17687688 7.86638644,9.65860157 8.72420871,9.99135802 C9.47699151,9.76368255 10.9650505,9.50098009 11.7353399,9.50098009 C15.3592013,9.50098009 17.7576023,11.4975188 20.0509639,14.0019489 C20.1209902,14.0720029 20.2085231,14.1420569 20.296056,14.2121109 C20.4886283,14.0369759 21.8191281,11.0246544 22.4318583,10.20152 L22.3443254,9.95633102 C18.475372,8.02984631 21.1538782,1.67244675 25.5305224,3.24866152 C26.8085025,3.72152595 27.6488182,5.05255175 27.6488182,6.38357755 C27.6488182,8.67784571 25.5655356,9.85125004 25.548029,10.1489795 L25.548029,10.1489795 L25.548029,10.1489795 Z" id="Shape"></path>
                </g>
            </g>
        </g>
    </g>
</svg>