<?xml version="1.0" encoding="UTF-8"?>
<svg width="101px" height="156px" viewBox="0 0 101 156" version="1.1" xmlns="http://www.w3.org/2000/svg" xmlns:xlink="http://www.w3.org/1999/xlink">
    <title>Group 3</title>
    <defs>
        <linearGradient x1="97.2637427%" y1="0%" x2="2.73625727%" y2="100%" id="linearGradient-1">
            <stop stop-color="#322C33" offset="0%"></stop>
            <stop stop-color="#37BFFE" offset="0%"></stop>
            <stop stop-color="#B620E0" offset="74.4891827%"></stop>
            <stop stop-color="#F7B500" offset="100%"></stop>
        </linearGradient>
    </defs>
    <g id="Page-1" stroke="none" stroke-width="1" fill="none" fill-rule="evenodd">
        <g id="Artboard" transform="translate(-331.000000, -139.000000)">
            <g id="Group" transform="translate(331.000000, 142.000000)">
                <path d="M74.980957,20.4692383 L94.980289,41.1747762 C99.4571221,45.8221553 99.4571221,53.1778447 94.980289,57.8252238 L59.1423752,95.0283915 C54.544481,99.8014435 46.9478282,99.943437 42.1747762,95.3455429 C42.0670925,95.2418108 32.8124723,86.2942072 32.7087402,86.1865234 M24.0319824,76.5932617 C15.0083569,67.1794892 9.00426639,60.9234765 6.019711,57.8252238 C1.5428779,53.1778447 1.5428779,45.8221553 6.019711,41.1747762 L41.8576248,3.97160852 C46.455519,-0.801443494 54.0521718,-0.943437005 58.8252238,3.65445714 C58.9329075,3.75818918 59.0386431,3.86392478 59.1423752,3.97160852 L65.8764648,10.6542969" id="Shape" stroke="url(#linearGradient-1)" stroke-width="5"></path>
                <path d="M8.544,152 C14.16,152 17.124,148.1 17.124,144.239 C17.124,139.520722 13.6968683,137.934134 10.4426251,136.907792 L10.0284064,136.779614 C9.68446914,136.675006 9.34422222,136.5755 9.012,136.478 C5.307,135.386 3.084,134.606 3.084,131.681 C3.084,129.419 4.8,126.923 8.544,126.923 C12.327,126.923 14.043,129.419 14.043,131.681 C14.043,132.383 14.589,132.929 15.291,132.929 C15.993,132.929 16.539,132.383 16.539,131.681 C16.539,128.093 13.809,124.466 8.544,124.466 C3.318,124.466 0.588,128.093 0.588,131.681 C0.588,136.634 4.878,137.843 8.31,138.857 C12.21,139.988 14.628,140.846 14.628,144.239 C14.628,146.774 12.717,149.504 8.544,149.504 C4.371,149.504 2.499,146.774 2.499,144.239 C2.499,143.537 1.914,142.991 1.251,142.991 C0.549,142.991 0.003,143.537 0.003,144.239 C0.003,148.1 2.928,152 8.544,152 Z M28.107,152 C28.809,152 29.355,151.454 29.355,150.752 L29.355,150.752 L29.355,125.714 C29.355,125.012 28.809,124.466 28.107,124.466 C27.405,124.466 26.859,125.012 26.859,125.714 L26.859,125.714 L26.859,150.752 C26.859,151.454 27.405,152 28.107,152 Z M60.462,152 C60.618,152 60.735,151.961 60.891,151.922 C61.398,151.766 61.71,151.298 61.71,150.752 L61.71,150.752 L61.71,125.714 C61.71,125.012 61.164,124.466 60.462,124.466 C59.799,124.466 59.214,125.012 59.214,125.714 L59.214,125.714 L59.214,147.164 L41.703,124.934 C41.391,124.505 40.806,124.349 40.338,124.505 C39.831,124.7 39.48,125.168 39.48,125.714 L39.48,125.714 L39.48,150.752 C39.48,151.454 40.026,152 40.728,152 C41.43,152 41.976,151.454 41.976,150.752 L41.976,150.752 L41.976,129.302 L59.487,151.532 C59.721,151.844 60.111,152 60.462,152 Z M79.791,152 C85.407,152 88.371,148.1 88.371,144.239 C88.371,139.520722 84.9438683,137.934134 81.6896251,136.907792 L81.2754064,136.779614 C80.9314691,136.675006 80.5912222,136.5755 80.259,136.478 C76.554,135.386 74.331,134.606 74.331,131.681 C74.331,129.419 76.047,126.923 79.791,126.923 C83.574,126.923 85.29,129.419 85.29,131.681 C85.29,132.383 85.836,132.929 86.538,132.929 C87.24,132.929 87.786,132.383 87.786,131.681 C87.786,128.093 85.056,124.466 79.791,124.466 C74.565,124.466 71.835,128.093 71.835,131.681 C71.835,136.634 76.125,137.843 79.557,138.857 C83.457,139.988 85.875,140.846 85.875,144.239 C85.875,146.774 83.964,149.504 79.791,149.504 C75.618,149.504 73.746,146.774 73.746,144.239 C73.746,143.537 73.161,142.991 72.498,142.991 C71.796,142.991 71.25,143.537 71.25,144.239 C71.25,148.1 74.175,152 79.791,152 Z M99.354,152 C100.056,152 100.602,151.454 100.602,150.752 L100.602,150.752 L100.602,125.714 C100.602,125.012 100.056,124.466 99.354,124.466 C98.652,124.466 98.106,125.012 98.106,125.714 L98.106,125.714 L98.106,150.752 C98.106,151.454 98.652,152 99.354,152 Z" id="SINSI" fill="#FFFFFF" fill-rule="nonzero"></path>
                <line x1="72.9497917" y1="9.85555623" x2="38.5723154" y2="53.072955" id="Line" stroke="#E7E7E7" stroke-width="3" stroke-linecap="square" transform="translate(55.761054, 31.464256) rotate(5.000000) translate(-55.761054, -31.464256) "></line>
                <line x1="59.6457369" y1="43.575954" x2="24.6457369" y2="87.575954" id="Line" stroke="#E7E7E7" stroke-width="3" stroke-linecap="square" transform="translate(42.145737, 65.575954) rotate(5.000000) translate(-42.145737, -65.575954) "></line>
            </g>
        </g>
    </g>
</svg>