<?xml version="1.0" encoding="UTF-8"?>
<svg width="28px" height="30px" viewBox="0 0 28 30" version="1.1" xmlns="http://www.w3.org/2000/svg" xmlns:xlink="http://www.w3.org/1999/xlink">
    <title>Combined Shape Copy</title>
    <g id="Page-2" stroke="none" stroke-width="1" fill="none" fill-rule="evenodd">
        <g id="Producto" transform="translate(-205.000000, -7321.000000)" fill="#FFFFFF">
            <g id="Group-4" transform="translate(-9.000000, 7299.000000)">
                <g id="Group-10" transform="translate(102.000000, 22.000000)">
                    <path d="M120.247966,0.183418497 C120.667933,0.453567206 120.970501,0.770453657 121.155672,1.13407785 C121.334884,1.4860016 122.190881,3.42666497 123.723662,6.95606796 C125.304163,6.30514646 126.966971,5.93939394 128.616041,5.93939394 C131.388541,5.93939394 132.982345,6.95500661 134.623125,8.06453322 C136.490741,9.32745092 137.882038,10.9919459 138.601244,12.8532197 C138.800252,12.9255238 138.985687,13.0267093 139.152118,13.151813 L139.151515,11.3882576 C139.151515,11.1905647 139.341455,11.030303 139.575758,11.030303 C139.81006,11.030303 140,11.1905647 140,11.3882576 L140,18.3087121 C140,18.506405 139.81006,18.6666667 139.575758,18.6666667 C139.341455,18.6666667 139.151515,18.506405 139.151515,18.3087121 L139.152118,18.2421263 C139.007956,18.3504908 138.849536,18.4409094 138.680175,18.5100648 C138.139028,20.272701 137.434169,21.8693198 136.064623,22.9340474 C134.523805,24.1319272 133.035519,24.9258482 131.233626,25.4473567 C130.965446,26.7081285 130.654034,27.7081219 130.298412,28.447506 C129.809151,29.464742 129.30487,29.86085 128.78557,29.6358302 C128.610584,29.5457806 128.484513,29.4401518 128.407359,29.3189437 C128.3407,29.2142235 128.049319,28.6874787 127.533216,27.7387093 C127.271323,27.8196397 127.004663,27.883025 126.73482,27.9270734 C126.298265,28.6996371 125.850819,28.9863182 125.39163,28.7873453 C125.216644,28.6972958 125.090574,28.591667 125.01342,28.4704589 C124.977689,28.4143272 124.877394,28.2369426 124.712532,27.938305 C124.542799,27.9178557 124.380373,27.8925361 124.224222,27.861564 C123.777129,28.6836912 123.317848,28.9917273 122.846176,28.7873453 C122.67119,28.6972958 122.545119,28.591667 122.467965,28.4704589 C122.390811,28.3492508 122.0126,27.6626635 121.333333,26.410697 C121.498912,26.3603191 121.645602,26.3144408 121.773405,26.2730622 C121.356856,26.2258987 121.011707,26.1223831 120.69992,25.9878176 C117.2396,25.341513 114.721814,23.6850057 114.668606,20.8153689 C114.659985,20.3503962 114.579072,19.4765278 114.5533,18.6213664 C114.414139,18.6514605 114.269452,18.6666667 114.121212,18.6666667 C113.918906,18.6666667 113.723214,18.6383455 113.537885,18.5854515 C113.466264,18.6369577 113.373608,18.6666667 113.272727,18.6666667 C113.038425,18.6666667 112.848485,18.506405 112.848485,18.3087121 L112.847882,18.2421263 C112.333005,17.855102 112,17.239167 112,16.5454545 L112,14.8484848 C112,14.1547724 112.333005,13.5388374 112.847882,13.151813 L112.848485,11.3882576 C112.848485,11.1905647 113.038425,11.030303 113.272727,11.030303 C113.50703,11.030303 113.69697,11.1905647 113.69697,11.3882576 L113.696429,12.7698146 C113.833673,12.741918 113.975732,12.7272727 114.121212,12.7272727 C114.2077,12.7272727 114.292978,12.7324488 114.376755,12.742508 C115.017049,8.9633647 115.7641,5.96537552 116.617145,3.74839108 C117.791371,0.696683142 119.001645,-0.491641051 120.247966,0.183418497 Z M131.511005,12.7272727 C130.211917,12.7272727 127.317793,15.3181667 126.556254,17.1745037 C125.794716,19.0308407 128.486844,19.5151515 130.560225,19.5151515 C132.633605,19.5151515 134.469624,18.1107628 133.980949,16.2382445 C133.492274,14.3657262 132.810094,12.7272727 131.511005,12.7272727 Z M120.488995,12.7272727 C119.189906,12.7272727 118.507726,14.3657262 118.019051,16.2382445 C117.530376,18.1107628 119.366395,19.5151515 121.439775,19.5151515 C123.513156,19.5151515 126.205284,19.0308407 125.443746,17.1745037 C124.682207,15.3181667 121.788083,12.7272727 120.488995,12.7272727 Z M119.712424,9.36391794 L119.642428,9.41243405 C119.415644,9.57406581 119.206421,9.74153802 118.999871,9.92767688 C118.407955,10.4611022 117.423416,11.4866191 116.390218,12.7796549 C116.24753,12.958228 116.066215,13.2357159 115.846273,13.6121186 C115.881139,13.6624351 115.914156,13.7128421 115.945025,13.7646765 C116.893781,12.1060349 118.195633,10.600914 119.712424,9.36391794 Z" id="Combined-Shape-Copy"></path>
                </g>
            </g>
        </g>
    </g>
</svg>