<?xml version="1.0" encoding="UTF-8"?>
<svg width="66px" height="24px" viewBox="0 0 66 24" version="1.1" xmlns="http://www.w3.org/2000/svg" xmlns:xlink="http://www.w3.org/1999/xlink">
    <title>Shape</title>
    <g id="Page-2" stroke="none" stroke-width="1" fill="none" fill-rule="evenodd">
        <g id="Producto" transform="translate(-248.000000, -7321.000000)" fill="#FFFFFF">
            <g id="Group-4" transform="translate(-9.000000, 7299.000000)">
                <path d="M318.289969,27.2619176 C318.648298,26.9974346 319.039203,26.7329516 319.332381,26.3979397 C319.560409,26.1334567 319.723286,25.7984449 319.674423,25.4810652 C319.560409,24.8110416 318.746024,24.6523517 318.013078,24.8110416 C317.557022,24.9168348 317.100967,25.1284212 316.758925,25.4458008 C316.612336,25.5692262 316.482035,25.727916 316.416884,25.8866059 C316.351733,26.0981923 316.51461,26.2392499 316.775213,26.1687211 C316.970665,26.1158245 317.133542,25.9923991 317.280132,25.8689737 C317.459296,25.6926516 317.622173,25.4986974 317.899064,25.4458008 C318.078229,25.4105364 318.241106,25.463433 318.241106,25.639755 C318.241106,25.7808127 318.110804,25.9218703 317.980502,26.0276635 C317.866489,26.1158245 317.768762,26.2039855 317.654749,26.2745143 C317.263844,26.5742617 316.889227,26.8740092 316.596048,27.2442854 C316.465747,27.4206074 316.351733,27.6145617 316.286582,27.8085159 C316.205144,28.0377345 316.172568,28.2669531 316.221431,28.4785395 C316.286582,28.778287 316.547185,28.9898734 316.905515,29.0075056 C317.57331,29.0251378 318.257393,28.9722412 318.957764,28.866448 C319.316093,28.7959192 319.69071,28.5843328 319.723286,28.2316887 C319.755861,27.8614125 319.364956,27.7379871 318.990339,27.7908837 C318.485421,27.8614125 317.980502,27.9143091 317.475584,27.9672057 C317.671036,27.7027227 317.99679,27.4911362 318.289969,27.2619176 L318.289969,27.2619176 L318.289969,27.2619176 Z M309.406964,34.2689821 C308.269405,34.2689821 302.650554,39.7775047 308.458999,39.7775047 C313.216063,39.7775047 310.458344,34.2689821 309.406964,34.2689821 L309.406964,34.2689821 L309.406964,34.2689821 Z M270.550213,34.0185947 C269.260255,34.0185947 262.42171,39.5271173 269.436961,39.5271173 C275.003219,39.5271173 271.840171,34.0185947 270.550213,34.0185947 L270.550213,34.0185947 L270.550213,34.0185947 Z M282.548029,29.1489795 C283.388345,30.2348163 283.878529,31.4082207 284.473752,32.6341655 C284.753858,32.4590305 285.121496,29.376655 285.209029,28.886277 C285.471627,27.3626028 286.416982,23.2644444 288.430239,23.2644444 C289.49814,23.2644444 290.21591,24.3327677 290.566041,25.2259561 C291.056225,26.4519009 291.353837,27.6603322 291.581423,28.956331 C291.703969,29.6568709 291.931554,31.1980587 292.10662,31.8285446 C293.612186,31.1280047 296.500771,29.5342764 296.55329,29.5167629 C297.516152,28.991358 299.546915,29.6568709 298.514027,31.4782746 C297.708724,32.9143814 294.189903,36.1894055 294.189903,36.5571889 C294.189903,36.7848644 297.253553,38.5187006 297.691218,38.6062681 C297.761244,38.4836736 297.866284,38.3610791 297.901297,38.2384846 C298.286442,37.2577288 298.444001,36.3295134 298.951691,35.3837846 C300.737362,31.9686526 305.131513,27.8529807 309.245559,27.9755752 C310.506032,28.0106022 311.713986,28.3433586 312.781887,28.9037905 C312.571808,28.1857371 312.571808,27.4151433 312.886927,26.6095224 C313.989841,23.7548223 318.121393,22.3887695 320.729873,23.4921198 C322.58557,24.2802272 323.495912,26.031577 322.725623,28.0456292 C321.780268,30.5150323 318.891682,32.581625 316.318216,32.0562201 C318.03386,34.5431367 318.716617,37.7831337 317.683729,40.6203203 C316.230683,44.6834517 310.681098,45.786802 306.864664,45.786802 C305.744243,45.786802 301.82277,45.0512351 301.717731,45.0687486 C299.616941,45.2613971 298.444001,45.4540456 296.308198,44.8936137 L292.474258,43.4049664 C292.071607,43.2998854 291.581423,44.1405333 291.318824,44.3682087 C289.55066,45.9794505 286.784621,45.2088566 284.99895,44.1230198 C282.968187,45.4190186 279.431858,45.92691 277.401095,44.3156682 C277.050964,44.0354523 276.245661,42.8445345 276.123115,42.791994 C271.834004,45.5065861 265.40909,46.3297205 260.454729,45.0687486 C259.68444,45.0512351 257.986302,43.8603173 257.671183,43.1597774 C256.813361,41.2508062 256.918401,39.411889 257.216012,37.3277828 C257.548637,35.0510281 257.986302,32.7742735 258.371446,30.5150323 C258.669058,28.7987095 259.806986,23.1768769 261.977801,23.1768769 C264.708827,23.1768769 264.866386,28.6586016 265.724209,28.991358 C266.476992,28.7636826 267.965051,28.5009801 268.73534,28.5009801 C272.359201,28.5009801 274.757602,30.4975188 277.050964,33.0019489 C277.12099,33.0720029 277.208523,33.1420569 277.296056,33.2121109 C277.488628,33.0369759 278.819128,30.0246544 279.431858,29.20152 L279.344325,28.956331 C275.475372,27.0298463 278.153878,20.6724467 282.530522,22.2486615 C283.808503,22.7215259 284.648818,24.0525517 284.648818,25.3835776 C284.648818,27.6778457 282.565536,28.85125 282.548029,29.1489795 L282.548029,29.1489795 L282.548029,29.1489795 Z" id="Shape"></path>
            </g>
        </g>
    </g>
</svg>